<svg id="Layer_1" data-name="Layer 1" xmlns="http://www.w3.org/2000/svg" viewBox="0 0 214.27962 283.31647"><defs><style>.cls-1{fill:#010101;}</style></defs><title>pdfhandler logo</title><path class="cls-1" d="M239.563,71.15333,211.47232,43.06261a16.07155,16.07155,0,0,0-11.35012-4.72084H131.78708a16.12527,16.12527,0,0,0-16.071,16.10445V193.728a16.07512,16.07512,0,0,0,16.071,16.071h96.42584a16.07512,16.07512,0,0,0,16.071-16.071V82.53694A16.14938,16.14938,0,0,0,239.563,71.15333ZM226.90715,81.23117H201.428V55.752ZM131.78708,193.728V54.44622H185.357V89.26666a8.0162,8.0162,0,0,0,8.03549,8.03548h34.82044V193.728Zm83.77-48.11247c-4.08471-4.01775-15.73616-2.91287-21.56189-2.17628-5.75876-3.51552-9.6091-8.3703-12.32108-15.50179,1.30577-5.39047,3.38161-13.59336,1.808-18.74946-1.40621-8.77208-12.65589-7.90157-14.263-1.97539-1.47317,5.39047-.13392,12.89026,2.34369,22.46588a268.85383,268.85383,0,0,1-11.85234,24.91c-6.69624,3.44856-15.73616,8.77208-17.07541,15.46832-1.10488,5.29,8.70511,18.48162,25.47919-10.44614,7.49978-2.4776,15.6692-5.52439,22.90113-6.72972,6.32794,3.41509,13.72729,5.6918,18.6825,5.6918C218.23552,158.57272,219.07255,149.131,215.557,145.6155Zm-66.32624,26.04836c1.70754-4.58693,8.20289-9.87695,10.17828-11.71842C153.04764,170.09024,149.23078,171.89823,149.23079,171.66386Zm27.32065-63.81515c2.47761,0,2.24324,10.74746.60266,13.66033C175.68093,116.85515,175.71441,107.84871,176.55144,107.84871ZM168.382,153.584a131.41841,131.41841,0,0,0,8.26986-18.31422,36.89071,36.89071,0,0,0,10.07784,11.88582C179.76564,148.59531,173.70554,151.54166,168.382,153.584ZM212.44328,151.91s-1.67406,2.00887-12.48848-2.61153C211.70669,148.42792,213.64861,151.10641,212.44328,151.91Z" transform="translate(-72.86019 -38.34177)"/><path class="cls-1" d="M141.42967,227.3752A10.714,10.714,0,1,0,124.2873,240.232l12.75634,17.00844a5.3526,5.3526,0,0,1-.50222,6.99757l-4.2856,4.28559a5.324,5.324,0,0,1-7.90156-.3683l-30.06611-36.0927V182.37648a10.714,10.714,0,0,0-21.428,0V255.4994a16.08809,16.08809,0,0,0,3.51552,10.04436L111.22963,310.509a19.98472,19.98472,0,0,1,3.48205,7.26542,5.2461,5.2461,0,0,0,5.12262,3.88381H163.929a5.37274,5.37274,0,0,0,5.357-5.357V278.80231a42.92263,42.92263,0,0,0-8.57119-25.71355L141.42966,227.3752Zm134.99616-55.7127a10.70248,10.70248,0,0,0-10.714,10.714v49.68609L235.64574,268.1553a5.377,5.377,0,0,1-7.90156.36829l-4.28559-4.28559a5.3526,5.3526,0,0,1-.50222-6.99757L235.71271,240.232a10.714,10.714,0,0,0-17.14236-12.85678l-19.28517,25.71356a42.92252,42.92252,0,0,0-8.5712,25.71354v37.49893a5.37274,5.37274,0,0,0,5.357,5.357H240.1657a5.275,5.275,0,0,0,5.12262-3.88382,19.98479,19.98479,0,0,1,3.48205-7.26542l34.85392-44.96524a16.08815,16.08815,0,0,0,3.51552-10.04436V182.37648A10.70247,10.70247,0,0,0,276.42583,171.6625Z" transform="translate(-72.86019 -38.34177)"/></svg>